<svg width="199" height="71" viewBox="0 0 199 71" fill="none" xmlns="http://www.w3.org/2000/svg">
<rect width="69.0661" height="24.7473" fill="#AB5B55"/>
<ellipse cx="100.245" cy="12.3736" rx="12.2977" ry="12.3736" fill="#AB5B55"/>
<ellipse cx="143.474" cy="12.3736" rx="12.2977" ry="12.3736" fill="#AB5B55"/>
<ellipse cx="186.702" cy="12.3736" rx="12.2977" ry="12.3736" fill="#AB5B55"/>
<path d="M1.53039 50.2247C1.53039 48.7407 1.78545 47.2799 2.29558 45.8423C2.8289 44.3815 3.59409 43.0598 4.59116 41.8772C5.58823 40.6714 6.80558 39.7091 8.24322 38.9903C9.70404 38.2715 11.362 37.9121 13.217 37.9121C15.4198 37.9121 17.298 38.4222 18.8516 39.4425C20.4052 40.4395 21.5645 41.7265 22.3297 43.3032L20.8689 44.138C20.2892 43.0018 19.5704 42.0975 18.7125 41.425C17.8777 40.7526 16.9734 40.2772 15.9995 39.999C15.0256 39.6975 14.0517 39.5468 13.0779 39.5468C11.5243 39.5468 10.133 39.8599 8.90407 40.4859C7.69831 41.112 6.67805 41.9467 5.8433 42.9902C5.00854 44.0336 4.37088 45.193 3.93031 46.4683C3.51293 47.7437 3.30424 49.0306 3.30424 50.3291C3.30424 51.7899 3.55931 53.1812 4.06944 54.5029C4.57957 55.8014 5.2752 56.9608 6.15633 57.981C7.06065 59.0013 8.10409 59.8129 9.28667 60.4157C10.4924 61.0186 11.7909 61.3201 13.1822 61.3201C14.1793 61.3201 15.1879 61.1577 16.2082 60.8331C17.2516 60.4853 18.2255 59.9636 19.1298 59.2679C20.0342 58.5491 20.7646 57.6216 21.3211 56.4854L22.8515 57.2158C22.3181 58.4448 21.5182 59.4882 20.4515 60.3462C19.3849 61.2041 18.2023 61.8534 16.9038 62.2939C15.6053 62.7345 14.3184 62.9548 13.0431 62.9548C11.3736 62.9548 9.83158 62.5954 8.41713 61.8766C7.00268 61.1346 5.77373 60.1607 4.73029 58.9549C3.71003 57.726 2.92165 56.3579 2.36514 54.8507C1.80864 53.3203 1.53039 51.7783 1.53039 50.2247Z" fill="#3C3C3B"/>
<path d="M55.8093 62.92C54.0934 62.92 52.5282 62.5722 51.1138 61.8766C49.6993 61.1577 48.482 60.207 47.4617 59.0245C46.4415 57.8419 45.6531 56.5086 45.0966 55.0246C44.5401 53.5174 44.2618 51.9754 44.2618 50.3987C44.2618 48.7523 44.5517 47.1872 45.1314 45.7032C45.7111 44.196 46.5226 42.8627 47.5661 41.7033C48.6327 40.5207 49.8617 39.5932 51.2529 38.9208C52.6674 38.2251 54.1978 37.8773 55.8441 37.8773C57.5832 37.8773 59.1483 38.2367 60.5396 38.9555C61.954 39.6744 63.1714 40.6366 64.1916 41.8424C65.2119 43.0482 66.0003 44.393 66.5568 45.8771C67.1133 47.3611 67.3915 48.8683 67.3915 50.3987C67.3915 52.0682 67.1017 53.6565 66.522 55.1637C65.9423 56.6477 65.1191 57.981 64.0525 59.1636C63.0091 60.323 61.7801 61.2389 60.3657 61.9113C58.9744 62.5838 57.4556 62.92 55.8093 62.92ZM46.0357 50.3987C46.0357 51.8131 46.2792 53.1696 46.7661 54.4681C47.253 55.7666 47.9255 56.926 48.7834 57.9462C49.6646 58.9665 50.6964 59.7781 51.879 60.381C53.0847 60.9838 54.4064 61.2853 55.8441 61.2853C57.3049 61.2853 58.6382 60.9722 59.844 60.3462C61.0497 59.7201 62.0816 58.8853 62.9395 57.8419C63.7975 56.7985 64.4467 55.6391 64.8873 54.3637C65.351 53.0652 65.5829 51.7435 65.5829 50.3987C65.5829 48.9842 65.3394 47.6277 64.8525 46.3292C64.3887 45.0307 63.7163 43.8713 62.8352 42.8511C61.954 41.8308 60.9106 41.0192 59.7048 40.4164C58.5223 39.8135 57.2353 39.512 55.8441 39.512C54.3601 39.512 53.0152 39.8251 51.8094 40.4511C50.6037 41.0772 49.5718 41.912 48.7139 42.9554C47.8791 43.9989 47.2183 45.1698 46.7313 46.4683C46.2676 47.7437 46.0357 49.0538 46.0357 50.3987Z" fill="#3C3C3B"/>
<path d="M90.9339 62.7461V38.0512H99.1423C101.763 38.0512 103.931 38.6077 105.646 39.7207C107.386 40.8105 108.684 42.2946 109.542 44.1728C110.423 46.0278 110.864 48.0915 110.864 50.3639C110.864 52.8681 110.388 55.0478 109.438 56.9028C108.487 58.7578 107.13 60.1954 105.368 61.2157C103.606 62.236 101.531 62.7461 99.1423 62.7461H90.9339ZM109.09 50.3639C109.09 48.3002 108.696 46.4567 107.907 44.8336C107.142 43.2105 106.017 41.9467 104.533 41.0424C103.073 40.1149 101.276 39.6512 99.1423 39.6512H92.7078V61.1461H99.1423C101.299 61.1461 103.119 60.6708 104.603 59.7201C106.087 58.7694 107.2 57.4825 107.942 55.8594C108.707 54.213 109.09 52.3812 109.09 50.3639Z" fill="#3C3C3B"/>
<path d="M152.353 61.1461V62.7461H135.901V38.0512H152.04V39.6512H137.675V49.3552H150.231V50.8856H137.675V61.1461H152.353Z" fill="#3C3C3B"/>
<path d="M180.529 36.4785C181.314 36.4295 182.233 36.3927 183.287 36.3682C184.341 36.3192 185.309 36.2947 186.192 36.2947C188.373 36.2947 190.126 36.834 191.45 37.9125C192.773 38.9666 193.435 40.5354 193.435 42.619C193.435 43.5995 193.227 44.4942 192.81 45.3031C192.418 46.0875 191.793 46.7616 190.935 47.3254C192.406 47.8157 193.558 48.5878 194.391 49.6418C195.225 50.6959 195.641 52.0318 195.641 53.6497C195.641 54.6792 195.458 55.6475 195.09 56.5544C194.722 57.4614 194.158 58.2581 193.398 58.9444C192.639 59.6308 191.695 60.1823 190.567 60.599C189.44 60.9912 188.116 61.1873 186.596 61.1873C185.395 61.1873 184.28 61.1383 183.25 61.0402C182.221 60.9667 181.314 60.8687 180.529 60.7461V36.4785ZM186.486 58.7606C188.471 58.7606 189.979 58.3071 191.008 57.4001C192.063 56.4686 192.59 55.1204 192.59 53.3555C192.59 51.9583 192.112 50.8552 191.156 50.0463C190.224 49.2129 188.643 48.7962 186.412 48.7962C185.873 48.7962 185.334 48.8084 184.795 48.8329C184.28 48.8329 183.777 48.8452 183.287 48.8697V58.6503C184.243 58.7238 185.309 58.7606 186.486 58.7606ZM185.53 46.7003C187.074 46.7003 188.263 46.3081 189.096 45.5237C189.954 44.7393 190.383 43.673 190.383 42.3248C190.383 41.2462 190.089 40.376 189.501 39.7142C188.913 39.0524 187.883 38.7214 186.412 38.7214C185.873 38.7214 185.334 38.7337 184.795 38.7582C184.28 38.7582 183.777 38.7705 183.287 38.795V46.6636C183.63 46.6881 183.986 46.7003 184.353 46.7003C184.745 46.7003 185.138 46.7003 185.53 46.7003Z" fill="#AB5B55"/>
</svg>
