<svg id="svg" version="1.1" xmlns="http://www.w3.org/2000/svg" xmlns:xlink="http://www.w3.org/1999/xlink" width="30" height="30" viewBox="0, 0, 400,400"><g id="svgg"><path id="path0" d="M101.549 2.261 C 101.099 2.804,100.964 8.218,100.800 32.361 L 100.600 61.800 81.746 61.904 C 66.638 61.987,62.804 62.114,62.450 62.540 C 62.145 62.908,61.976 68.876,61.904 81.836 L 61.800 100.600 32.361 100.800 C 8.218 100.964,2.804 101.099,2.261 101.549 C 1.331 102.321,1.243 138.958,2.168 140.224 C 2.719 140.978,3.560 141.003,32.050 141.110 C 54.642 141.195,61.437 141.333,61.677 141.710 C 61.848 141.980,61.991 150.439,61.994 160.510 L 62.000 178.820 60.974 179.210 C 60.343 179.450,49.061 179.602,31.674 179.606 C 1.988 179.613,2.695 179.571,2.025 181.334 C 1.441 182.870,1.441 217.130,2.025 218.666 C 2.695 220.429,1.988 220.387,31.674 220.394 C 49.061 220.398,60.343 220.550,60.974 220.790 L 62.000 221.180 61.994 239.490 C 61.991 249.561,61.848 258.020,61.677 258.290 C 61.437 258.667,54.642 258.805,32.050 258.890 C 3.560 258.997,2.719 259.022,2.168 259.776 C 1.243 261.042,1.331 297.679,2.261 298.451 C 2.804 298.901,8.218 299.036,32.361 299.200 L 61.800 299.400 61.904 318.254 C 61.987 333.362,62.114 337.196,62.540 337.550 C 62.908 337.855,68.876 338.024,81.836 338.096 L 100.600 338.200 100.800 367.639 C 100.965 391.866,101.098 397.195,101.552 397.743 C 102.055 398.348,103.801 398.398,121.140 398.304 L 140.177 398.200 140.682 397.200 C 141.076 396.422,141.190 389.803,141.194 367.343 C 141.199 341.401,141.264 338.461,141.833 338.243 C 142.181 338.109,150.727 338.000,160.825 338.000 L 179.185 338.000 179.292 367.435 L 179.400 396.871 180.344 397.635 C 181.811 398.823,218.189 398.823,219.656 397.635 L 220.600 396.871 220.708 367.435 L 220.815 338.000 239.175 338.000 C 249.273 338.000,257.819 338.109,258.167 338.243 C 258.736 338.461,258.801 341.401,258.806 367.343 C 258.810 389.803,258.924 396.422,259.318 397.200 L 259.823 398.200 278.860 398.304 C 296.199 398.398,297.945 398.348,298.448 397.743 C 298.902 397.195,299.035 391.866,299.200 367.639 L 299.400 338.200 318.164 338.096 C 331.124 338.024,337.092 337.855,337.460 337.550 C 337.886 337.196,338.013 333.362,338.096 318.254 L 338.200 299.400 367.800 299.200 C 384.080 299.090,397.625 298.854,397.900 298.676 C 398.289 298.425,398.400 294.083,398.400 279.199 L 398.400 260.045 397.511 259.423 C 396.726 258.873,393.215 258.800,367.554 258.800 C 341.416 258.800,338.461 258.736,338.243 258.167 C 338.109 257.819,338.000 249.273,338.000 239.175 L 338.000 220.815 367.435 220.708 L 396.871 220.600 397.635 219.656 C 398.823 218.189,398.823 181.811,397.635 180.344 L 396.871 179.400 367.435 179.292 L 338.000 179.185 338.000 160.825 C 338.000 150.727,338.109 142.181,338.243 141.833 C 338.461 141.264,341.416 141.200,367.554 141.200 C 393.215 141.200,396.726 141.127,397.511 140.577 L 398.400 139.955 398.400 120.801 C 398.400 105.917,398.289 101.575,397.900 101.324 C 397.625 101.146,384.080 100.910,367.800 100.800 L 338.200 100.600 338.096 81.746 C 338.013 66.638,337.886 62.804,337.460 62.450 C 337.092 62.145,331.124 61.976,318.164 61.904 L 299.400 61.800 299.200 32.361 C 299.036 8.218,298.901 2.804,298.451 2.261 C 297.862 1.552,261.216 1.220,260.125 1.914 C 258.885 2.702,258.800 4.707,258.800 32.983 C 258.800 58.631,258.736 61.539,258.167 61.757 C 256.531 62.385,220.891 62.015,220.643 61.367 C 220.509 61.019,220.397 47.834,220.394 32.067 C 220.387 1.971,220.429 2.695,218.666 2.025 C 217.130 1.441,182.870 1.441,181.334 2.025 C 179.571 2.695,179.613 1.971,179.606 32.067 C 179.603 47.834,179.491 61.019,179.357 61.367 C 179.109 62.015,143.469 62.385,141.833 61.757 C 141.264 61.539,141.200 58.631,141.200 32.983 C 141.200 4.707,141.115 2.702,139.875 1.914 C 138.784 1.220,102.138 1.552,101.549 2.261 M139.986 3.574 C 140.483 4.502,140.562 61.125,140.068 61.904 C 139.816 62.300,135.688 62.386,120.774 62.304 L 101.800 62.200 101.690 33.400 C 101.629 17.560,101.678 4.195,101.797 3.700 L 102.015 2.800 120.794 2.800 C 138.950 2.800,139.586 2.826,139.986 3.574 M218.630 3.700 C 219.379 4.575,219.394 5.402,219.200 33.400 L 219.000 62.200 200.000 62.200 L 181.000 62.200 180.800 33.400 C 180.606 5.402,180.621 4.575,181.370 3.700 L 182.139 2.800 200.000 2.800 L 217.861 2.800 218.630 3.700 M298.203 3.700 C 298.322 4.195,298.371 17.560,298.310 33.400 L 298.200 62.200 279.226 62.304 C 264.312 62.386,260.184 62.300,259.932 61.904 C 259.438 61.125,259.517 4.502,260.014 3.574 C 260.414 2.826,261.050 2.800,279.206 2.800 L 297.985 2.800 298.203 3.700 M298.320 101.680 C 299.019 102.379,299.019 297.621,298.320 298.320 C 297.621 299.019,102.379 299.019,101.680 298.320 C 100.981 297.621,100.981 102.379,101.680 101.680 C 102.379 100.981,297.621 100.981,298.320 101.680 M396.581 101.664 L 397.600 102.128 397.600 120.815 C 397.600 136.406,397.507 139.580,397.036 139.970 C 396.444 140.461,338.365 140.673,337.578 140.186 C 336.787 139.698,337.101 102.097,337.900 101.632 C 338.950 101.021,395.236 101.051,396.581 101.664 M62.304 120.774 C 62.386 135.688,62.300 139.816,61.904 140.068 C 61.125 140.562,4.502 140.483,3.574 139.986 C 2.601 139.465,2.333 102.256,3.300 101.864 C 3.575 101.752,16.940 101.692,33.000 101.730 L 62.200 101.800 62.304 120.774 M199.200 140.798 L 141.000 141.000 140.800 200.000 C 140.690 232.450,140.744 259.180,140.920 259.400 C 141.529 260.161,258.606 260.137,259.368 259.375 C 260.142 258.601,260.356 142.613,259.586 141.174 C 259.334 140.704,258.824 140.438,258.286 140.498 C 257.799 140.552,231.210 140.687,199.200 140.798 M259.400 199.920 C 259.400 231.754,259.271 258.115,259.113 258.500 C 258.796 259.270,143.267 259.610,142.059 258.845 C 140.847 258.077,135.339 263.718,228.271 170.553 C 255.296 143.459,258.126 140.798,259.000 141.650 C 259.263 141.906,259.400 161.860,259.400 199.920 M61.904 180.991 C 62.301 181.138,62.386 185.171,62.304 200.089 L 62.200 219.000 33.400 219.200 C 5.402 219.394,4.575 219.379,3.700 218.630 L 2.800 217.861 2.800 200.056 C 2.800 182.988,2.832 182.217,3.576 181.426 C 4.310 180.644,59.851 180.230,61.904 180.991 M396.977 181.289 C 397.518 182.061,397.600 184.517,397.600 200.000 C 397.600 215.483,397.518 217.939,396.977 218.711 L 396.355 219.600 367.191 219.600 C 338.768 219.600,338.018 219.580,337.614 218.826 C 337.346 218.326,337.200 211.679,337.200 200.000 C 337.200 188.321,337.346 181.674,337.614 181.174 C 338.018 180.420,338.768 180.400,367.191 180.400 L 396.355 180.400 396.977 181.289 M397.037 260.031 C 397.506 260.420,397.600 263.609,397.600 279.185 L 397.600 297.872 396.581 298.336 C 395.056 299.031,338.820 298.996,337.872 298.300 C 337.244 297.839,337.199 296.307,337.295 278.800 L 337.400 259.800 338.800 259.600 C 341.929 259.153,396.465 259.556,397.037 260.031 M61.904 259.932 C 62.300 260.184,62.386 264.312,62.304 279.226 L 62.200 298.200 33.400 298.310 C 17.560 298.371,4.195 298.322,3.700 298.203 L 2.800 297.985 2.800 279.212 C 2.800 261.756,2.849 260.411,3.500 260.032 C 4.344 259.541,61.134 259.444,61.904 259.932 M140.465 339.400 C 140.987 343.340,140.831 395.318,140.294 396.344 L 139.800 397.289 121.000 397.233 C 103.981 397.182,102.153 397.114,101.700 396.512 C 101.046 395.642,100.965 339.187,101.616 337.970 C 102.021 337.214,102.569 337.195,121.116 337.296 L 140.200 337.400 140.465 339.400 M218.826 337.614 C 219.784 338.126,220.070 395.770,219.120 396.720 C 218.429 397.411,181.571 397.411,180.880 396.720 C 179.993 395.833,180.208 338.152,181.100 337.632 C 182.068 337.068,217.775 337.051,218.826 337.614 M298.386 337.974 C 299.035 339.187,298.952 395.644,298.300 396.512 C 297.847 397.114,296.019 397.182,279.000 397.233 L 260.200 397.289 259.695 396.344 C 259.115 395.259,259.142 338.598,259.724 337.700 C 260.348 336.735,297.865 337.001,298.386 337.974 " stroke="none" fill="#accbfc" fill-rule="evenodd"></path><path id="path1" d="M102.000 32.000 L 102.000 59.800 119.779 59.677 C 135.851 59.566,137.657 59.619,138.579 60.223 L 139.600 60.892 139.600 32.546 L 139.600 4.200 120.800 4.200 L 102.000 4.200 102.000 32.000 M182.000 32.272 L 182.000 60.344 183.297 59.972 C 184.989 59.487,215.011 59.487,216.703 59.972 L 218.000 60.344 218.000 32.272 L 218.000 4.200 200.000 4.200 L 182.000 4.200 182.000 32.272 M260.400 32.546 L 260.400 60.892 261.421 60.223 C 262.343 59.619,264.149 59.566,280.221 59.677 L 298.000 59.800 298.000 32.000 L 298.000 4.200 279.200 4.200 L 260.400 4.200 260.400 32.546 M339.496 101.887 L 338.392 102.054 338.496 120.927 L 338.600 139.800 367.523 139.800 L 396.446 139.800 396.412 121.017 C 396.386 106.687,396.262 102.160,395.889 101.923 C 395.396 101.610,341.553 101.576,339.496 101.887 M4.200 120.800 L 4.200 139.600 32.546 139.600 L 60.892 139.600 60.223 138.579 C 59.619 137.657,59.566 135.851,59.677 119.779 L 59.800 102.000 32.000 102.000 L 4.200 102.000 4.200 120.800 M229.689 170.900 C 214.001 186.575,200.912 199.850,200.603 200.400 C 200.294 200.950,199.857 201.805,199.631 202.300 C 199.405 202.795,198.945 203.200,198.610 203.200 C 198.274 203.200,198.000 203.474,198.000 203.809 C 198.000 204.143,197.565 204.615,197.034 204.857 C 196.503 205.099,195.979 205.636,195.871 206.049 C 195.763 206.462,195.388 206.800,195.037 206.800 C 194.687 206.800,194.400 207.074,194.400 207.410 C 194.400 207.745,193.975 208.182,193.455 208.379 C 192.935 208.577,192.412 209.112,192.292 209.569 C 192.173 210.026,191.809 210.400,191.484 210.400 C 191.159 210.400,190.799 210.760,190.684 211.200 C 190.569 211.640,190.217 212.000,189.902 212.000 C 189.586 212.000,189.123 212.450,188.873 213.000 C 188.622 213.550,188.164 214.000,187.855 214.000 C 187.546 214.000,187.199 214.360,187.084 214.800 C 186.969 215.240,186.609 215.600,186.284 215.600 C 185.959 215.600,185.596 215.973,185.476 216.430 C 185.357 216.886,184.903 217.353,184.467 217.467 C 184.031 217.581,183.584 218.017,183.474 218.437 C 183.365 218.857,182.988 219.200,182.637 219.200 C 182.287 219.200,182.000 219.474,182.000 219.809 C 182.000 220.143,181.565 220.615,181.034 220.857 C 180.503 221.099,179.979 221.636,179.871 222.049 C 179.763 222.462,179.388 222.800,179.037 222.800 C 178.687 222.800,178.400 223.074,178.400 223.410 C 178.400 223.745,177.975 224.182,177.455 224.379 C 176.935 224.577,176.412 225.112,176.292 225.569 C 176.173 226.026,175.809 226.400,175.484 226.400 C 175.159 226.400,174.799 226.760,174.684 227.200 C 174.569 227.640,174.217 228.000,173.902 228.000 C 173.586 228.000,173.123 228.450,172.873 229.000 C 172.622 229.550,172.164 230.000,171.855 230.000 C 171.546 230.000,171.199 230.360,171.084 230.800 C 170.969 231.240,170.609 231.600,170.284 231.600 C 169.959 231.600,169.596 231.973,169.476 232.430 C 169.357 232.886,168.903 233.353,168.467 233.467 C 168.031 233.581,167.584 234.017,167.474 234.437 C 167.365 234.857,166.988 235.200,166.637 235.200 C 166.287 235.200,166.000 235.474,166.000 235.809 C 166.000 236.143,165.565 236.615,165.034 236.857 C 164.503 237.099,163.979 237.636,163.871 238.049 C 163.763 238.462,163.388 238.800,163.037 238.800 C 162.687 238.800,162.400 239.074,162.400 239.410 C 162.400 239.745,161.975 240.182,161.455 240.379 C 160.935 240.577,160.412 241.112,160.292 241.569 C 160.173 242.026,159.809 242.400,159.484 242.400 C 159.159 242.400,158.799 242.760,158.684 243.200 C 158.569 243.640,158.217 244.000,157.902 244.000 C 157.586 244.000,157.123 244.450,156.873 245.000 C 156.622 245.550,156.164 246.000,155.855 246.000 C 155.546 246.000,155.199 246.360,155.084 246.800 C 154.969 247.240,154.609 247.600,154.284 247.600 C 153.959 247.600,153.596 247.973,153.476 248.430 C 153.357 248.886,152.903 249.353,152.467 249.467 C 152.031 249.581,151.584 250.017,151.474 250.437 C 151.365 250.857,150.988 251.200,150.637 251.200 C 150.287 251.200,150.000 251.474,150.000 251.809 C 150.000 252.143,149.565 252.615,149.034 252.857 C 148.503 253.099,147.979 253.636,147.871 254.049 C 147.763 254.462,147.388 254.800,147.037 254.800 C 146.687 254.800,146.400 255.074,146.400 255.410 C 146.400 255.745,145.935 256.196,145.367 256.412 C 144.203 256.855,144.269 257.909,145.441 257.600 C 146.672 257.275,255.240 257.453,257.100 257.783 L 258.800 258.084 258.800 200.242 C 258.800 168.429,258.668 142.400,258.507 142.400 C 258.345 142.400,245.377 155.225,229.689 170.900 M339.300 181.611 L 338.400 181.974 338.400 199.997 L 338.400 218.020 339.433 218.413 C 340.083 218.660,350.803 218.767,368.333 218.703 L 396.200 218.600 396.200 200.000 L 396.200 181.400 368.200 181.324 C 352.154 181.280,339.816 181.403,339.300 181.611 M4.200 200.000 L 4.200 218.000 32.272 218.000 L 60.344 218.000 59.972 216.703 C 59.487 215.011,59.487 184.989,59.972 183.297 L 60.344 182.000 32.272 182.000 L 4.200 182.000 4.200 200.000 M338.669 260.264 C 338.521 260.412,338.400 268.940,338.400 279.214 L 338.400 297.895 339.900 298.143 C 342.096 298.506,395.312 298.443,395.889 298.077 C 396.262 297.840,396.386 293.313,396.412 278.983 L 396.446 260.200 367.692 260.097 C 351.878 260.041,338.817 260.116,338.669 260.264 M4.200 279.200 L 4.200 298.000 32.000 298.000 L 59.800 298.000 59.677 280.221 C 59.566 264.149,59.619 262.343,60.223 261.421 L 60.892 260.400 32.546 260.400 L 4.200 260.400 4.200 279.200 M101.857 339.900 C 101.492 342.104,101.557 395.314,101.925 395.892 C 102.165 396.270,106.605 396.390,121.019 396.408 L 139.800 396.431 139.903 367.416 L 140.005 338.400 121.055 338.400 L 102.105 338.400 101.857 339.900 M181.404 339.700 C 181.276 340.415,181.223 353.420,181.286 368.600 L 181.400 396.200 200.000 396.200 L 218.600 396.200 218.714 368.600 C 218.777 353.420,218.724 340.415,218.596 339.700 L 218.364 338.400 200.000 338.400 L 181.636 338.400 181.404 339.700 M260.097 367.416 L 260.200 396.431 278.981 396.408 C 293.395 396.390,297.835 396.270,298.075 395.892 C 298.443 395.314,298.508 342.104,298.143 339.900 L 297.895 338.400 278.945 338.400 L 259.995 338.400 260.097 367.416 " stroke="none" fill="#5490f4" fill-rule="evenodd"></path><path id="path2" d="M0.000 200.000 L 0.000 400.000 200.000 400.000 L 400.000 400.000 400.000 200.000 L 400.000 0.000 200.000 0.000 L 0.000 0.000 0.000 200.000 M139.875 1.914 C 141.115 2.702,141.200 4.707,141.200 32.983 C 141.200 58.631,141.264 61.539,141.833 61.757 C 143.469 62.385,179.109 62.015,179.357 61.367 C 179.491 61.019,179.603 47.834,179.606 32.067 C 179.613 1.971,179.571 2.695,181.334 2.025 C 182.870 1.441,217.130 1.441,218.666 2.025 C 220.429 2.695,220.387 1.971,220.394 32.067 C 220.397 47.834,220.509 61.019,220.643 61.367 C 220.891 62.015,256.531 62.385,258.167 61.757 C 258.736 61.539,258.800 58.631,258.800 32.983 C 258.800 4.707,258.885 2.702,260.125 1.914 C 261.216 1.220,297.862 1.552,298.451 2.261 C 298.901 2.804,299.036 8.218,299.200 32.361 L 299.400 61.800 318.164 61.904 C 331.124 61.976,337.092 62.145,337.460 62.450 C 337.886 62.804,338.013 66.638,338.096 81.746 L 338.200 100.600 367.800 100.800 C 384.080 100.910,397.625 101.146,397.900 101.324 C 398.289 101.575,398.400 105.917,398.400 120.801 L 398.400 139.955 397.511 140.577 C 396.726 141.127,393.215 141.200,367.554 141.200 C 341.416 141.200,338.461 141.264,338.243 141.833 C 338.109 142.181,338.000 150.727,338.000 160.825 L 338.000 179.185 367.435 179.292 L 396.871 179.400 397.635 180.344 C 398.823 181.811,398.823 218.189,397.635 219.656 L 396.871 220.600 367.435 220.708 L 338.000 220.815 338.000 239.175 C 338.000 249.273,338.109 257.819,338.243 258.167 C 338.461 258.736,341.416 258.800,367.554 258.800 C 393.215 258.800,396.726 258.873,397.511 259.423 L 398.400 260.045 398.400 279.199 C 398.400 294.083,398.289 298.425,397.900 298.676 C 397.625 298.854,384.080 299.090,367.800 299.200 L 338.200 299.400 338.096 318.254 C 338.013 333.362,337.886 337.196,337.460 337.550 C 337.092 337.855,331.124 338.024,318.164 338.096 L 299.400 338.200 299.200 367.639 C 299.035 391.866,298.902 397.195,298.448 397.743 C 297.945 398.348,296.199 398.398,278.860 398.304 L 259.823 398.200 259.318 397.200 C 258.924 396.422,258.810 389.803,258.806 367.343 C 258.801 341.401,258.736 338.461,258.167 338.243 C 257.819 338.109,249.273 338.000,239.175 338.000 L 220.815 338.000 220.708 367.435 L 220.600 396.871 219.656 397.635 C 218.189 398.823,181.811 398.823,180.344 397.635 L 179.400 396.871 179.292 367.435 L 179.185 338.000 160.825 338.000 C 150.727 338.000,142.181 338.109,141.833 338.243 C 141.264 338.461,141.199 341.401,141.194 367.343 C 141.190 389.803,141.076 396.422,140.682 397.200 L 140.177 398.200 121.140 398.304 C 103.801 398.398,102.055 398.348,101.552 397.743 C 101.098 397.195,100.965 391.866,100.800 367.639 L 100.600 338.200 81.836 338.096 C 68.876 338.024,62.908 337.855,62.540 337.550 C 62.114 337.196,61.987 333.362,61.904 318.254 L 61.800 299.400 32.361 299.200 C 8.218 299.036,2.804 298.901,2.261 298.451 C 1.331 297.679,1.243 261.042,2.168 259.776 C 2.719 259.022,3.560 258.997,32.050 258.890 C 54.642 258.805,61.437 258.667,61.677 258.290 C 61.848 258.020,61.991 249.561,61.994 239.490 L 62.000 221.180 60.974 220.790 C 60.343 220.550,49.061 220.398,31.674 220.394 C 1.988 220.387,2.695 220.429,2.025 218.666 C 1.441 217.130,1.441 182.870,2.025 181.334 C 2.695 179.571,1.988 179.613,31.674 179.606 C 49.061 179.602,60.343 179.450,60.974 179.210 L 62.000 178.820 61.994 160.510 C 61.991 150.439,61.848 141.980,61.677 141.710 C 61.437 141.333,54.642 141.195,32.050 141.110 C 3.560 141.003,2.719 140.978,2.168 140.224 C 1.243 138.958,1.331 102.321,2.261 101.549 C 2.804 101.099,8.218 100.964,32.361 100.800 L 61.800 100.600 61.904 81.836 C 61.976 68.876,62.145 62.908,62.450 62.540 C 62.804 62.114,66.638 61.987,81.746 61.904 L 100.600 61.800 100.800 32.361 C 100.964 8.218,101.099 2.804,101.549 2.261 C 102.138 1.552,138.784 1.220,139.875 1.914 M101.680 101.680 C 100.981 102.379,100.981 297.621,101.680 298.320 C 102.379 299.019,297.621 299.019,298.320 298.320 C 299.019 297.621,299.019 102.379,298.320 101.680 C 297.621 100.981,102.379 100.981,101.680 101.680 M259.586 141.174 C 260.356 142.613,260.142 258.601,259.368 259.375 C 258.606 260.137,141.529 260.161,140.920 259.400 C 140.744 259.180,140.690 232.450,140.800 200.000 L 141.000 141.000 199.200 140.798 C 231.210 140.687,257.799 140.552,258.286 140.498 C 258.824 140.438,259.334 140.704,259.586 141.174 " stroke="none" fill="#fcfcfc" fill-rule="evenodd"></path><path id="path3" d="M120.400 3.599 C 109.584 3.716,102.386 3.935,103.200 4.123 C 103.970 4.300,112.475 4.390,122.100 4.323 L 139.600 4.200 139.600 32.546 L 139.600 60.892 138.614 60.246 C 137.747 59.678,135.663 59.601,121.314 59.604 C 103.508 59.609,102.000 59.706,102.000 60.841 C 102.000 61.566,138.743 62.283,139.703 61.577 C 140.175 61.230,139.875 3.473,139.400 3.432 C 139.180 3.413,130.630 3.488,120.400 3.599 M260.279 3.454 C 259.901 3.833,259.921 61.520,260.300 61.676 C 261.826 62.305,298.000 61.503,298.000 60.841 C 298.000 59.706,296.492 59.609,278.686 59.604 C 264.337 59.601,262.253 59.678,261.386 60.246 L 260.400 60.892 260.400 32.546 L 260.400 4.200 278.314 4.319 C 289.418 4.393,296.603 4.288,297.214 4.044 C 297.884 3.777,292.336 3.643,279.933 3.625 C 269.886 3.611,261.416 3.504,261.112 3.388 C 260.807 3.271,260.433 3.301,260.279 3.454 M181.471 3.863 C 181.110 4.224,181.177 59.999,181.539 60.917 C 181.806 61.591,182.897 61.634,199.996 61.634 L 218.170 61.634 218.488 60.775 C 218.662 60.302,218.759 47.290,218.703 31.858 L 218.600 3.800 200.171 3.696 C 190.034 3.639,181.619 3.714,181.471 3.863 M218.000 32.272 L 218.000 60.344 216.703 59.972 C 215.011 59.487,184.989 59.487,183.297 59.972 L 182.000 60.344 182.000 32.272 L 182.000 4.200 200.000 4.200 L 218.000 4.200 218.000 32.272 M101.789 32.000 C 101.789 47.290,101.839 53.545,101.900 45.900 C 101.961 38.255,101.961 25.745,101.900 18.100 C 101.839 10.455,101.789 16.710,101.789 32.000 M298.189 32.000 C 298.189 47.290,298.239 53.545,298.300 45.900 C 298.361 38.255,298.361 25.745,298.300 18.100 C 298.239 10.455,298.189 16.710,298.189 32.000 M18.100 101.900 C 25.745 101.961,38.255 101.961,45.900 101.900 C 53.545 101.839,47.290 101.789,32.000 101.789 C 16.710 101.789,10.455 101.839,18.100 101.900 M338.080 102.080 C 337.136 103.024,337.419 139.475,338.374 139.986 C 339.556 140.619,396.085 140.555,396.720 139.920 C 397.545 139.095,397.397 102.161,396.567 101.843 C 395.687 101.505,395.302 101.550,395.889 101.923 C 396.262 102.160,396.386 106.687,396.412 121.017 L 396.446 139.800 367.523 139.800 L 338.600 139.800 338.496 120.927 L 338.392 102.054 339.496 101.887 C 340.581 101.723,340.583 101.719,339.580 101.660 C 339.019 101.627,338.344 101.816,338.080 102.080 M3.532 120.600 C 3.459 130.940,3.500 139.536,3.623 139.703 C 3.745 139.869,16.847 139.959,32.739 139.903 L 61.632 139.800 61.716 120.900 L 61.800 102.000 60.952 102.000 C 59.688 102.000,59.609 103.129,59.604 121.314 C 59.601 135.663,59.678 137.747,60.246 138.614 L 60.892 139.600 32.546 139.600 L 4.200 139.600 4.319 121.686 C 4.391 110.780,4.286 103.386,4.050 102.786 C 3.790 102.122,3.620 107.936,3.532 120.600 M256.573 143.158 C 255.708 143.805,242.760 156.689,227.800 171.788 C 212.840 186.888,187.505 212.424,171.500 228.535 C 155.495 244.647,142.400 258.047,142.400 258.314 C 142.400 258.693,155.223 258.800,200.592 258.800 L 258.785 258.800 259.002 257.900 C 259.441 256.082,259.019 142.273,258.573 142.124 C 258.338 142.046,257.438 142.511,256.573 143.158 M258.800 200.242 L 258.800 258.084 257.100 257.783 C 255.240 257.453,146.672 257.275,145.441 257.600 C 144.269 257.909,144.203 256.855,145.367 256.412 C 145.935 256.196,146.400 255.745,146.400 255.410 C 146.400 255.074,146.687 254.800,147.037 254.800 C 147.388 254.800,147.763 254.462,147.871 254.049 C 147.979 253.636,148.503 253.099,149.034 252.857 C 149.565 252.615,150.000 252.143,150.000 251.809 C 150.000 251.474,150.287 251.200,150.637 251.200 C 150.988 251.200,151.365 250.857,151.474 250.437 C 151.584 250.017,152.031 249.581,152.467 249.467 C 152.903 249.353,153.357 248.886,153.476 248.430 C 153.596 247.973,153.959 247.600,154.284 247.600 C 154.609 247.600,154.969 247.240,155.084 246.800 C 155.199 246.360,155.546 246.000,155.855 246.000 C 156.164 246.000,156.622 245.550,156.873 245.000 C 157.123 244.450,157.586 244.000,157.902 244.000 C 158.217 244.000,158.569 243.640,158.684 243.200 C 158.799 242.760,159.159 242.400,159.484 242.400 C 159.809 242.400,160.173 242.026,160.292 241.569 C 160.412 241.112,160.935 240.577,161.455 240.379 C 161.975 240.182,162.400 239.745,162.400 239.410 C 162.400 239.074,162.687 238.800,163.037 238.800 C 163.388 238.800,163.763 238.462,163.871 238.049 C 163.979 237.636,164.503 237.099,165.034 236.857 C 165.565 236.615,166.000 236.143,166.000 235.809 C 166.000 235.474,166.287 235.200,166.637 235.200 C 166.988 235.200,167.365 234.857,167.474 234.437 C 167.584 234.017,168.031 233.581,168.467 233.467 C 168.903 233.353,169.357 232.886,169.476 232.430 C 169.596 231.973,169.959 231.600,170.284 231.600 C 170.609 231.600,170.969 231.240,171.084 230.800 C 171.199 230.360,171.546 230.000,171.855 230.000 C 172.164 230.000,172.622 229.550,172.873 229.000 C 173.123 228.450,173.586 228.000,173.902 228.000 C 174.217 228.000,174.569 227.640,174.684 227.200 C 174.799 226.760,175.159 226.400,175.484 226.400 C 175.809 226.400,176.173 226.026,176.292 225.569 C 176.412 225.112,176.935 224.577,177.455 224.379 C 177.975 224.182,178.400 223.745,178.400 223.410 C 178.400 223.074,178.687 222.800,179.037 222.800 C 179.388 222.800,179.763 222.462,179.871 222.049 C 179.979 221.636,180.503 221.099,181.034 220.857 C 181.565 220.615,182.000 220.143,182.000 219.809 C 182.000 219.474,182.287 219.200,182.637 219.200 C 182.988 219.200,183.365 218.857,183.474 218.437 C 183.584 218.017,184.031 217.581,184.467 217.467 C 184.903 217.353,185.357 216.886,185.476 216.430 C 185.596 215.973,185.959 215.600,186.284 215.600 C 186.609 215.600,186.969 215.240,187.084 214.800 C 187.199 214.360,187.546 214.000,187.855 214.000 C 188.164 214.000,188.622 213.550,188.873 213.000 C 189.123 212.450,189.586 212.000,189.902 212.000 C 190.217 212.000,190.569 211.640,190.684 211.200 C 190.799 210.760,191.159 210.400,191.484 210.400 C 191.809 210.400,192.173 210.026,192.292 209.569 C 192.412 209.112,192.935 208.577,193.455 208.379 C 193.975 208.182,194.400 207.745,194.400 207.410 C 194.400 207.074,194.687 206.800,195.037 206.800 C 195.388 206.800,195.763 206.462,195.871 206.049 C 195.979 205.636,196.503 205.099,197.034 204.857 C 197.565 204.615,198.000 204.143,198.000 203.809 C 198.000 203.474,198.274 203.200,198.610 203.200 C 198.945 203.200,199.405 202.795,199.631 202.300 C 199.857 201.805,200.294 200.950,200.603 200.400 C 201.217 199.307,258.029 142.400,258.507 142.400 C 258.668 142.400,258.800 168.429,258.800 200.242 M338.223 181.689 C 337.682 182.461,337.600 184.879,337.600 200.000 C 337.600 215.121,337.682 217.539,338.223 218.311 L 338.845 219.200 367.361 219.200 C 394.478 219.200,395.908 219.164,396.538 218.469 C 397.607 217.287,397.542 182.433,396.469 181.462 C 395.802 180.859,393.199 180.800,367.291 180.800 L 338.845 180.800 338.223 181.689 M3.783 181.700 C 3.678 181.975,3.638 190.390,3.696 200.400 L 3.800 218.600 31.858 218.703 C 47.290 218.759,60.302 218.662,60.775 218.488 L 61.634 218.170 61.634 199.996 C 61.634 182.897,61.591 181.806,60.917 181.539 C 59.528 180.991,3.995 181.147,3.783 181.700 M396.200 200.000 L 396.200 218.600 368.333 218.703 C 350.803 218.767,340.083 218.660,339.433 218.413 L 338.400 218.020 338.400 199.997 L 338.400 181.974 339.300 181.611 C 339.816 181.403,352.154 181.280,368.200 181.324 L 396.200 181.400 396.200 200.000 M59.972 183.297 C 59.487 184.989,59.487 215.011,59.972 216.703 L 60.344 218.000 32.272 218.000 L 4.200 218.000 4.200 200.000 L 4.200 182.000 32.272 182.000 L 60.344 182.000 59.972 183.297 M338.300 260.032 C 337.649 260.411,337.600 261.744,337.600 278.971 C 337.600 298.971,337.570 298.688,339.678 298.285 C 340.493 298.129,340.472 298.103,339.496 298.054 L 338.392 298.000 338.496 279.100 L 338.600 260.200 367.523 260.200 L 396.446 260.200 396.412 278.983 C 396.386 293.287,396.261 297.851,395.889 298.121 C 395.565 298.356,395.647 298.395,396.133 298.238 C 396.536 298.107,396.941 298.000,397.033 298.000 C 397.486 298.000,397.177 260.537,396.720 260.080 C 396.091 259.451,339.377 259.405,338.300 260.032 M3.525 260.297 C 3.456 260.464,3.490 269.060,3.600 279.400 C 3.716 290.316,3.935 297.613,4.123 296.800 C 4.300 296.030,4.390 287.525,4.323 277.900 L 4.200 260.400 32.546 260.400 L 60.892 260.400 60.246 261.386 C 59.678 262.253,59.601 264.337,59.604 278.686 C 59.609 296.871,59.688 298.000,60.952 298.000 L 61.800 298.000 61.716 279.100 L 61.632 260.200 32.641 260.097 C 16.696 260.041,3.594 260.131,3.525 260.297 M18.100 298.300 C 25.745 298.361,38.255 298.361,45.900 298.300 C 53.545 298.239,47.290 298.189,32.000 298.189 C 16.710 298.189,10.455 298.239,18.100 298.300 M102.018 338.178 C 101.754 338.496,101.618 339.171,101.715 339.678 C 101.871 340.496,101.897 340.476,101.946 339.500 L 102.000 338.400 121.024 338.400 C 133.604 338.400,139.963 338.265,139.800 338.000 C 139.364 337.295,102.607 337.468,102.018 338.178 M181.429 338.229 C 180.601 339.056,180.456 395.496,181.280 396.320 C 181.971 397.011,218.029 397.011,218.720 396.320 C 219.544 395.496,219.399 339.056,218.571 338.229 C 217.619 337.276,182.381 337.276,181.429 338.229 M260.200 338.000 C 260.037 338.265,266.396 338.400,278.976 338.400 L 298.000 338.400 298.054 339.500 C 298.103 340.476,298.129 340.496,298.285 339.678 C 298.688 337.570,298.971 337.600,278.975 337.600 C 267.054 337.600,260.359 337.743,260.200 338.000 M218.596 339.700 C 218.724 340.415,218.777 353.420,218.714 368.600 L 218.600 396.200 200.000 396.200 L 181.400 396.200 181.286 368.600 C 181.223 353.420,181.276 340.415,181.404 339.700 L 181.636 338.400 200.000 338.400 L 218.364 338.400 218.596 339.700 M140.190 367.400 C 140.190 383.240,140.239 389.662,140.300 381.671 C 140.360 373.679,140.360 360.719,140.300 352.871 C 140.239 345.022,140.190 351.560,140.190 367.400 M259.790 367.400 C 259.790 383.240,259.839 389.662,259.900 381.671 C 259.960 373.679,259.960 360.719,259.900 352.871 C 259.839 345.022,259.790 351.560,259.790 367.400 M101.703 396.000 C 101.879 396.645,138.962 397.342,139.765 396.715 C 139.966 396.558,131.604 396.420,121.184 396.408 C 106.654 396.391,102.157 396.271,101.889 395.893 C 101.634 395.534,101.584 395.563,101.703 396.000 M297.942 395.968 C 297.846 396.251,291.661 396.394,278.848 396.408 C 268.425 396.420,259.994 396.527,260.112 396.645 C 260.231 396.764,268.756 396.840,279.058 396.816 C 296.196 396.774,299.149 396.616,298.315 395.782 C 298.188 395.654,298.020 395.738,297.942 395.968 " stroke="none" fill="#7cacf4" fill-rule="evenodd"></path><path id="path4" d="M101.843 3.433 C 101.505 4.314,101.550 4.698,101.923 4.111 C 102.160 3.737,106.700 3.614,121.127 3.588 C 132.866 3.568,139.931 3.412,139.786 3.178 C 139.333 2.444,102.126 2.694,101.843 3.433 M181.370 3.700 C 180.621 4.575,180.606 5.402,180.800 33.400 L 181.000 62.200 200.000 62.200 L 219.000 62.200 219.200 33.400 C 219.394 5.402,219.379 4.575,218.630 3.700 L 217.861 2.800 200.000 2.800 L 182.139 2.800 181.370 3.700 M260.214 3.178 C 260.069 3.412,267.134 3.568,278.873 3.588 C 293.274 3.614,297.850 3.738,298.121 4.111 C 298.356 4.436,298.396 4.354,298.238 3.867 C 298.107 3.464,298.000 3.059,298.000 2.967 C 298.000 2.605,260.439 2.814,260.214 3.178 M218.703 31.858 C 218.759 47.290,218.662 60.302,218.488 60.775 L 218.170 61.634 199.996 61.634 C 182.897 61.634,181.806 61.591,181.539 60.917 C 181.177 59.999,181.110 4.224,181.471 3.863 C 181.619 3.714,190.034 3.639,200.171 3.696 L 218.600 3.800 218.703 31.858 M140.097 32.676 C 140.044 48.558,139.865 61.608,139.700 61.676 C 139.535 61.744,130.996 61.750,120.725 61.689 L 102.051 61.577 101.869 60.489 C 101.736 59.694,101.703 59.778,101.744 60.800 L 101.800 62.200 120.891 62.304 L 139.983 62.408 140.202 61.504 C 140.322 61.007,140.370 47.820,140.308 32.200 L 140.195 3.800 140.097 32.676 M259.702 32.600 C 259.653 48.440,259.756 61.627,259.932 61.904 C 260.184 62.300,264.312 62.386,279.226 62.304 L 298.200 62.200 298.256 60.800 C 298.298 59.754,298.266 59.678,298.130 60.500 L 297.947 61.600 279.773 61.667 C 269.778 61.703,261.285 61.748,260.900 61.767 C 260.241 61.798,260.188 60.091,259.996 32.800 L 259.792 3.800 259.702 32.600 M337.872 101.700 C 336.723 102.543,337.042 140.135,338.200 140.309 C 338.931 140.419,338.940 140.392,338.300 139.995 C 337.360 139.411,337.203 102.827,338.138 102.052 C 338.520 101.735,347.003 101.575,367.438 101.500 L 396.200 101.395 367.376 101.297 C 344.823 101.221,338.405 101.309,337.872 101.700 M3.300 101.865 C 2.687 102.112,2.559 139.404,3.170 139.782 C 3.395 139.921,3.558 132.594,3.585 121.120 C 3.618 106.777,3.745 102.155,4.114 101.921 C 4.647 101.582,4.095 101.544,3.300 101.865 M60.700 101.818 L 61.800 102.036 61.716 120.918 L 61.632 139.800 32.716 140.004 L 3.800 140.208 32.600 140.298 C 48.440 140.347,61.627 140.244,61.904 140.068 C 62.300 139.816,62.386 135.688,62.304 120.774 L 62.200 101.800 60.900 101.700 C 59.803 101.616,59.772 101.634,60.700 101.818 M397.296 120.620 C 397.236 132.387,397.051 139.620,396.801 139.921 C 396.580 140.188,396.671 140.171,397.005 139.883 C 397.529 139.431,397.594 136.907,397.500 120.582 L 397.392 101.800 397.296 120.620 M257.422 141.890 C 256.776 142.229,243.658 155.127,228.271 170.553 C 135.335 263.722,140.848 258.076,142.059 258.846 C 143.002 259.444,258.915 259.092,259.037 258.490 C 259.094 258.210,259.049 258.165,258.937 258.390 C 258.619 259.031,142.400 258.955,142.400 258.314 C 142.400 258.047,155.495 244.647,171.500 228.535 C 187.505 212.424,212.930 186.800,228.000 171.592 C 254.516 144.834,257.873 141.627,258.777 142.186 C 259.010 142.330,259.200 142.267,259.200 142.047 C 259.200 141.319,258.612 141.267,257.422 141.890 M259.395 200.000 C 259.395 231.570,259.442 244.485,259.500 228.700 C 259.558 212.915,259.558 187.085,259.500 171.300 C 259.442 155.515,259.395 168.430,259.395 200.000 M3.576 181.426 C 2.832 182.217,2.800 182.988,2.800 200.056 L 2.800 217.861 3.700 218.630 C 4.575 219.379,5.402 219.394,33.400 219.200 L 62.200 219.000 62.304 200.089 C 62.386 185.171,62.301 181.138,61.904 180.991 C 59.851 180.230,4.310 180.644,3.576 181.426 M337.614 181.174 C 337.346 181.674,337.200 188.321,337.200 200.000 C 337.200 211.679,337.346 218.326,337.614 218.826 C 338.018 219.580,338.768 219.600,367.191 219.600 L 396.355 219.600 396.977 218.711 C 397.518 217.939,397.600 215.483,397.600 200.000 C 397.600 184.517,397.518 182.061,396.977 181.289 L 396.355 180.400 367.191 180.400 C 338.768 180.400,338.018 180.420,337.614 181.174 M396.469 181.462 C 397.542 182.433,397.607 217.287,396.538 218.469 C 395.908 219.164,394.478 219.200,367.361 219.200 L 338.845 219.200 338.223 218.311 C 337.682 217.539,337.600 215.121,337.600 200.000 C 337.600 184.879,337.682 182.461,338.223 181.689 L 338.845 180.800 367.291 180.800 C 393.199 180.800,395.802 180.859,396.469 181.462 M60.917 181.539 C 61.591 181.806,61.634 182.897,61.634 199.996 L 61.634 218.170 60.775 218.488 C 60.302 218.662,47.290 218.759,31.858 218.703 L 3.800 218.600 3.696 200.400 C 3.638 190.390,3.678 181.975,3.783 181.700 C 3.995 181.147,59.528 180.991,60.917 181.539 M32.716 259.996 L 61.632 260.200 61.716 279.082 L 61.800 297.964 60.600 298.134 C 59.580 298.279,59.610 298.297,60.800 298.252 L 62.200 298.200 62.304 279.226 C 62.386 264.312,62.300 260.184,61.904 259.932 C 61.627 259.756,48.440 259.653,32.600 259.702 L 3.800 259.792 32.716 259.996 M337.467 259.867 C 336.693 260.640,337.189 297.966,337.979 298.389 C 338.503 298.669,348.130 298.771,367.479 298.700 L 396.200 298.595 367.380 298.497 C 345.608 298.424,338.443 298.283,338.080 297.920 C 337.199 297.039,337.410 260.550,338.300 260.032 C 338.893 259.687,338.903 259.622,338.367 259.612 C 338.018 259.605,337.613 259.720,337.467 259.867 M396.696 260.036 C 397.071 260.517,397.218 265.253,397.300 279.436 L 397.408 298.200 397.504 279.349 C 397.593 261.805,397.551 260.460,396.900 259.949 C 396.281 259.463,396.257 259.473,396.696 260.036 M3.067 260.267 C 2.415 260.918,2.773 297.904,3.433 298.157 C 4.312 298.494,4.698 298.450,4.114 298.079 C 3.745 297.845,3.618 293.224,3.585 278.885 C 3.561 268.498,3.494 260.000,3.437 260.000 C 3.380 260.000,3.213 260.120,3.067 260.267 M101.613 337.975 C 101.330 338.504,101.229 348.040,101.300 367.479 L 101.405 396.200 101.503 367.380 C 101.576 345.608,101.717 338.443,102.080 338.080 C 102.961 337.199,139.443 337.410,139.995 338.300 C 140.392 338.940,140.419 338.931,140.309 338.200 C 140.122 336.955,102.277 336.735,101.613 337.975 M181.100 337.632 C 180.208 338.152,179.993 395.833,180.880 396.720 C 181.571 397.411,218.429 397.411,219.120 396.720 C 220.070 395.770,219.784 338.126,218.826 337.614 C 217.775 337.051,182.068 337.068,181.100 337.632 M259.867 337.467 C 259.720 337.613,259.605 338.018,259.612 338.367 C 259.622 338.903,259.687 338.893,260.032 338.300 C 260.550 337.410,297.039 337.199,297.920 338.080 C 298.283 338.443,298.424 345.608,298.497 367.380 L 298.595 396.200 298.700 367.479 C 298.771 348.130,298.669 338.503,298.389 337.979 C 297.966 337.189,260.640 336.693,259.867 337.467 M218.571 338.229 C 219.399 339.056,219.544 395.496,218.720 396.320 C 218.029 397.011,181.971 397.011,181.280 396.320 C 180.456 395.496,180.601 339.056,181.429 338.229 C 182.381 337.276,217.619 337.276,218.571 338.229 M140.589 368.200 C 140.589 383.380,140.639 389.532,140.700 381.871 C 140.761 374.210,140.761 361.790,140.700 354.271 C 140.639 346.752,140.589 353.020,140.589 368.200 M259.389 368.200 C 259.389 383.380,259.439 389.532,259.500 381.871 C 259.561 374.210,259.561 361.790,259.500 354.271 C 259.439 346.752,259.389 353.020,259.389 368.200 M139.786 396.519 C 139.491 396.887,134.944 396.953,120.520 396.800 C 110.135 396.690,101.766 396.727,101.921 396.882 C 102.408 397.368,139.629 397.331,140.116 396.844 C 140.353 396.607,140.462 396.329,140.359 396.226 C 140.256 396.123,139.998 396.255,139.786 396.519 M259.600 396.300 C 259.600 396.549,259.790 396.870,260.023 397.014 C 260.594 397.367,297.722 397.238,298.079 396.882 C 298.234 396.727,289.865 396.690,279.480 396.800 C 263.363 396.971,260.527 396.916,260.100 396.424 C 259.801 396.078,259.600 396.029,259.600 396.300 " stroke="none" fill="#8fb4fc" fill-rule="evenodd"></path></g></svg>