<?xml version="1.0" standalone="no"?>
<!DOCTYPE svg PUBLIC "-//W3C//DTD SVG 20010904//EN"
 "http://www.w3.org/TR/2001/REC-SVG-20010904/DTD/svg10.dtd">
<svg version="1.0" xmlns="http://www.w3.org/2000/svg"
 width="21.67000000pt" height="21.67000000pt" viewBox="0 0 2167.000000 2167.000000"
 preserveAspectRatio="xMidYMid meet">

<g transform="translate(0.000000,2167.000000) scale(0.100000,-0.100000)"
fill="#000000" stroke="none">
<path d="M10565 19283 c-658 -39 -1143 -111 -1700 -253 -886 -225 -1712 -577
-2475 -1055 -856 -536 -1625 -1230 -2236 -2020 -938 -1212 -1520 -2637 -1698
-4155 -52 -442 -66 -788 -53 -1318 5 -218 4 -345 -3 -370 -5 -20 -34 -70 -64
-110 -72 -96 -129 -208 -162 -317 -35 -117 -40 -307 -10 -425 90 -354 386
-654 741 -750 110 -30 284 -37 391 -17 268 51 520 246 659 510 171 323 141
714 -77 1010 -64 86 -180 193 -262 241 l-63 37 -7 61 c-10 97 -7 701 4 870 58
860 249 1666 578 2433 746 1742 2143 3137 3902 3900 1490 645 3171 774 4769
364 229 -58 277 -81 286 -137 40 -239 92 -382 198 -545 111 -170 255 -309 424
-409 246 -146 549 -212 821 -178 180 23 367 88 517 179 l80 49 80 -55 c552
-383 1086 -885 1542 -1449 l89 -111 524 229 c289 126 528 232 533 237 4 4 -42
75 -104 157 -552 732 -1225 1387 -1933 1878 -166 115 -180 137 -189 275 -23
350 -186 669 -453 890 -491 406 -1172 416 -1652 25 -32 -27 -61 -43 -71 -40
-642 197 -1387 328 -2071 366 -165 9 -725 11 -855 3z m4021 -559 c210 -44 397
-199 504 -419 68 -140 93 -242 94 -385 0 -139 -16 -208 -79 -336 -100 -204
-314 -366 -561 -425 -120 -29 -287 -29 -397 0 -228 60 -418 232 -514 468 -130
319 -81 628 137 852 148 152 337 240 555 260 103 9 160 6 261 -15z m-11326
-8840 c128 -43 247 -161 289 -287 29 -87 30 -218 2 -299 -57 -166 -194 -280
-372 -310 -270 -46 -530 178 -529 457 1 124 42 224 130 319 99 105 206 149
345 142 44 -2 105 -12 135 -22z"/>
<path d="M10610 17024 c-176 -10 -370 -27 -515 -45 -1113 -140 -2159 -595
-3050 -1326 -157 -128 -227 -192 -429 -392 -1009 -997 -1671 -2307 -1875
-3716 -48 -330 -55 -442 -56 -875 0 -272 5 -462 13 -550 123 -1254 571 -2341
1378 -3336 152 -188 177 -232 202 -354 41 -202 125 -357 266 -495 342 -333
891 -366 1256 -76 381 303 479 819 236 1231 -212 359 -609 540 -1008 459 -87
-18 -106 -6 -203 125 -408 551 -709 1180 -865 1804 -271 1091 -174 2220 282
3277 208 482 488 932 836 1345 136 161 442 466 602 599 812 678 1741 1066
2780 1160 413 38 886 17 1340 -60 102 -17 178 -25 183 -20 5 5 130 238 277
517 185 351 265 511 257 516 -7 3 -105 27 -217 52 -481 106 -878 153 -1355
160 -148 2 -299 2 -335 0z m-3291 -9955 c145 -33 297 -173 341 -316 97 -313
-194 -658 -509 -603 -147 25 -300 139 -364 269 -30 63 -32 72 -32 181 0 111 1
117 36 190 78 163 213 270 364 289 63 8 91 6 164 -10z"/>
<path d="M14628 15839 c-91 -13 -236 -66 -323 -117 -109 -64 -272 -228 -339
-340 -217 -366 -165 -819 132 -1142 76 -84 210 -179 308 -220 139 -58 214 -73
381 -75 150 -3 154 -3 189 -30 59 -45 261 -327 401 -560 388 -644 617 -1332
699 -2095 21 -189 23 -706 5 -915 -95 -1090 -542 -2151 -1259 -2990 -122 -143
-396 -419 -537 -540 -668 -580 -1438 -960 -2285 -1130 -286 -57 -449 -73 -790
-81 -633 -13 -1142 33 -1566 142 -125 32 -327 99 -373 123 l-21 12 0 -565 c0
-528 1 -566 18 -574 38 -20 297 -103 423 -136 1124 -292 2419 -193 3581 273
897 359 1741 969 2397 1731 1292 1500 1839 3490 1469 5345 -186 937 -597 1823
-1208 2605 -45 58 -104 150 -132 205 -48 94 -52 106 -60 207 -21 267 -144 500
-349 662 -212 168 -496 244 -761 205z m284 -495 c54 -18 144 -74 208 -131 134
-121 173 -323 93 -492 -38 -80 -180 -222 -258 -257 -144 -66 -311 -41 -454 69
-147 113 -211 289 -166 462 23 87 62 152 136 228 127 127 282 170 441 121z"/>
<path d="M12190 15085 c-8 -2 -49 -9 -90 -15 -206 -34 -415 -135 -601 -290
-43 -36 -84 -62 -104 -66 -19 -3 -135 -1 -257 4 -764 36 -1480 -132 -2132
-499 -147 -84 -421 -269 -566 -385 -168 -134 -495 -459 -622 -619 -778 -978
-1038 -2229 -721 -3470 181 -710 543 -1345 1058 -1860 221 -222 502 -445 718
-569 l47 -28 0 717 0 716 -85 96 c-288 323 -510 722 -629 1130 -73 253 -106
494 -106 783 0 377 65 712 206 1060 252 620 712 1140 1291 1459 391 216 866
341 1298 341 154 0 157 -2 189 -125 100 -374 337 -665 681 -835 370 -184 785
-184 1149 -1 121 60 121 60 223 -61 210 -251 360 -498 476 -788 136 -339 197
-659 197 -1035 0 -906 -411 -1748 -1112 -2278 -523 -396 -1203 -610 -1850
-584 l-148 6 0 -568 0 -568 61 -7 c164 -17 513 -4 774 29 891 113 1751 569
2353 1247 187 211 388 490 514 713 440 777 624 1691 513 2551 -93 717 -390
1398 -854 1959 -41 50 -145 162 -232 250 -86 88 -163 174 -171 190 -10 19 -17
75 -21 157 -17 338 -132 610 -359 844 -183 190 -423 321 -688 379 -68 15 -362
30 -400 20z m354 -515 c230 -59 422 -220 524 -440 59 -126 75 -203 75 -345 -1
-100 -5 -135 -27 -210 -40 -133 -97 -234 -184 -327 -112 -118 -210 -180 -372
-234 -79 -26 -97 -28 -245 -28 -148 0 -165 2 -233 26 -265 96 -465 335 -529
633 -22 103 -20 272 6 370 59 225 206 400 423 499 185 86 374 104 562 56z"/>
<path d="M18830 12964 c-411 -43 -757 -349 -872 -771 -29 -108 -31 -336 -4
-438 52 -195 183 -387 345 -505 l59 -43 7 -156 c16 -334 -5 -897 -45 -1231
-187 -1534 -854 -2975 -1907 -4115 -1189 -1287 -2775 -2111 -4493 -2335 -345
-45 -500 -54 -940 -54 -416 0 -532 5 -840 40 -320 36 -713 107 -1025 187
l-170 43 -17 105 c-81 487 -405 868 -871 1024 -140 47 -255 65 -412 65 -260 0
-482 -64 -693 -199 l-81 -52 -78 52 c-593 398 -1189 953 -1647 1532 -49 62
-74 86 -85 82 -75 -28 -1051 -460 -1051 -465 0 -10 208 -284 322 -425 180
-221 348 -406 592 -651 417 -417 774 -712 1254 -1039 l169 -114 6 -108 c31
-499 347 -928 823 -1117 432 -171 910 -100 1272 187 l74 59 92 -26 c270 -76
664 -162 961 -210 1789 -288 3611 -9 5225 799 1675 839 3029 2193 3844 3845
414 838 685 1740 800 2660 55 441 60 519 61 1112 l2 557 84 89 c327 344 343
881 39 1256 -92 113 -275 247 -408 296 -126 48 -290 74 -392 64z m173 -519
c234 -61 386 -287 348 -518 -48 -290 -332 -461 -606 -367 -322 111 -418 521
-178 758 123 121 282 167 436 127z m-11128 -8179 c215 -58 381 -198 485 -411
185 -379 102 -760 -220 -1002 -140 -105 -302 -162 -486 -170 -152 -7 -242 11
-369 72 -156 75 -263 186 -350 360 -136 273 -137 530 -3 760 56 96 200 237
300 293 89 51 194 89 293 108 88 17 268 11 350 -10z"/>
</g>
</svg>
